<svg width="1144" height="502" viewBox="0 0 1144 502" fill="none" xmlns="http://www.w3.org/2000/svg">
<path d="M31.1509 247H2.05258L31.2716 74.5835H80.292L109.511 247H80.5335L74.3758 208.363H37.4294L31.1509 247ZM45.2774 144.733L39.9649 182.766H71.7195L66.5277 144.733L60.2492 100.18H51.5559L45.2774 144.733ZM604.96 247H585.147V144.038H562.116V126.087H627.907V144.038H604.96V247Z" fill="#8468F3"/>
<path d="M153.833 248.355C141.414 248.355 132.523 246.181 127.161 241.835C121.798 237.432 118.891 230.122 118.439 219.905C117.988 214.034 118.129 208.022 118.863 201.869H137.829C137.491 205.764 137.293 209.575 137.237 213.3C137.237 217.026 137.434 220.497 137.829 223.715C138.112 226.312 139.467 228.315 141.894 229.727C144.378 231.081 148.329 231.759 153.748 231.759C159.111 231.759 162.949 231.081 165.264 229.727C167.634 228.315 168.989 226.312 169.328 223.715C169.723 220.78 169.892 218.014 169.836 215.417C169.779 212.764 169.61 209.97 169.328 207.034C169.046 204.607 168.142 202.462 166.618 200.599C165.094 198.736 162.074 197.495 157.558 196.874L143.503 193.91C136.842 192.612 131.705 190.749 128.092 188.322C124.536 185.894 122.024 182.846 120.556 179.177C119.089 175.508 118.242 171.189 118.016 166.222C117.903 163.851 117.847 161.593 117.847 159.448C117.903 157.303 117.988 155.158 118.101 153.013C118.439 142.909 121.29 135.655 126.653 131.252C132.015 126.849 141.047 124.648 153.748 124.648C165.715 124.648 174.38 126.849 179.743 131.252C185.105 135.655 187.984 142.909 188.379 153.013C188.549 155.271 188.577 158.065 188.464 161.396C188.407 164.67 188.295 167.803 188.125 170.794H168.989C169.497 163.4 169.554 156.202 169.158 149.203C168.707 143.897 163.542 141.243 153.663 141.243C148.301 141.243 144.434 141.921 142.063 143.276C139.692 144.63 138.338 146.606 137.999 149.203C137.604 152.025 137.406 154.876 137.406 157.755C137.463 160.577 137.66 163.4 137.999 166.222C138.281 168.706 139.184 170.851 140.708 172.657C142.232 174.407 145.394 175.592 150.192 176.213L163.147 178.669C170.033 179.911 175.311 181.802 178.981 184.342C182.65 186.882 185.218 190.043 186.686 193.825C188.21 197.551 189.085 201.954 189.311 207.034C189.48 209.292 189.536 211.466 189.48 213.554C189.424 215.643 189.311 217.76 189.141 219.905C188.69 230.122 185.754 237.432 180.335 241.835C174.973 246.181 166.138 248.355 153.833 248.355ZM234.821 248.355C222.402 248.355 213.511 246.181 208.149 241.835C202.786 237.432 199.879 230.122 199.427 219.905C198.976 214.034 199.117 208.022 199.851 201.869H218.817C218.479 205.764 218.281 209.575 218.225 213.3C218.225 217.026 218.422 220.497 218.817 223.715C219.1 226.312 220.454 228.315 222.882 229.727C225.366 231.081 229.317 231.759 234.736 231.759C240.099 231.759 243.937 231.081 246.252 229.727C248.622 228.315 249.977 226.312 250.316 223.715C250.711 220.78 250.88 218.014 250.824 215.417C250.767 212.764 250.598 209.97 250.316 207.034C250.034 204.607 249.13 202.462 247.606 200.599C246.082 198.736 243.062 197.495 238.546 196.874L224.491 193.91C217.83 192.612 212.693 190.749 209.08 188.322C205.524 185.894 203.012 182.846 201.544 179.177C200.077 175.508 199.23 171.189 199.004 166.222C198.891 163.851 198.835 161.593 198.835 159.448C198.891 157.303 198.976 155.158 199.089 153.013C199.427 142.909 202.278 135.655 207.641 131.252C213.003 126.849 222.035 124.648 234.736 124.648C246.703 124.648 255.368 126.849 260.731 131.252C266.093 135.655 268.972 142.909 269.367 153.013C269.537 155.271 269.565 158.065 269.452 161.396C269.395 164.67 269.283 167.803 269.113 170.794H249.977C250.485 163.4 250.542 156.202 250.146 149.203C249.695 143.897 244.53 141.243 234.651 141.243C229.289 141.243 225.422 141.921 223.051 143.276C220.68 144.63 219.326 146.606 218.987 149.203C218.592 152.025 218.394 154.876 218.394 157.755C218.451 160.577 218.648 163.4 218.987 166.222C219.269 168.706 220.172 170.851 221.696 172.657C223.22 174.407 226.382 175.592 231.18 176.213L244.135 178.669C251.021 179.911 256.299 181.802 259.969 184.342C263.638 186.882 266.206 190.043 267.674 193.825C269.198 197.551 270.073 201.954 270.299 207.034C270.468 209.292 270.524 211.466 270.468 213.554C270.412 215.643 270.299 217.76 270.129 219.905C269.678 230.122 266.742 237.432 261.323 241.835C255.961 246.181 247.126 248.355 234.821 248.355ZM317.417 248.355C304.942 248.355 295.967 246.181 290.491 241.835C285.016 237.432 282.137 230.15 281.855 219.989C281.46 209.264 281.262 198.115 281.262 186.543C281.262 174.915 281.46 163.738 281.855 153.013C282.137 142.909 285.016 135.655 290.491 131.252C295.967 126.849 304.942 124.648 317.417 124.648C329.949 124.648 338.924 126.849 344.343 131.252C349.819 135.655 352.698 142.909 352.98 153.013C353.375 163.851 353.573 175.056 353.573 186.628C353.573 198.144 353.375 209.264 352.98 219.989C352.698 230.15 349.819 237.432 344.343 241.835C338.924 246.181 329.949 248.355 317.417 248.355ZM317.417 231.759C322.949 231.759 326.929 231.081 329.356 229.727C331.784 228.372 333.054 226.396 333.167 223.8C333.618 216.348 333.9 208.276 334.013 199.583C334.126 190.834 334.098 182.084 333.929 173.335C333.816 164.585 333.562 156.541 333.167 149.203C333.054 146.55 331.755 144.574 329.272 143.276C326.788 141.921 322.837 141.243 317.417 141.243C312.055 141.243 308.132 141.921 305.648 143.276C303.164 144.574 301.838 146.55 301.668 149.203C301.217 156.541 300.934 164.585 300.822 173.335C300.709 182.084 300.737 190.834 300.906 199.583C301.076 208.276 301.33 216.348 301.668 223.8C301.838 226.396 303.164 228.372 305.648 229.727C308.132 231.081 312.055 231.759 317.417 231.759ZM400.946 248.355C388.696 248.355 379.947 246.181 374.697 241.835C369.504 237.432 366.766 230.15 366.484 219.989C366.258 213.667 366.089 206.498 365.976 198.482C365.919 190.467 365.919 182.451 365.976 174.435C366.089 166.42 366.258 159.222 366.484 152.844C366.71 144.094 369.504 137.207 374.866 132.183C380.229 127.16 388.894 124.648 400.861 124.648C412.885 124.648 421.606 126.849 427.025 131.252C432.5 135.655 435.408 142.909 435.746 153.013C435.859 155.553 435.887 158.517 435.831 161.904C435.774 165.234 435.69 168.198 435.577 170.794H415.763C415.876 167.803 415.933 164.218 415.933 160.041C415.989 155.807 415.961 152.223 415.848 149.287C415.792 146.634 414.578 144.659 412.207 143.36C409.836 142.006 406.054 141.328 400.861 141.328C395.893 141.328 392.253 142.006 389.938 143.36C387.68 144.659 386.467 146.634 386.297 149.287C386.015 156.852 385.817 164.952 385.705 173.589C385.592 182.169 385.592 190.777 385.705 199.414C385.817 208.05 386.015 216.151 386.297 223.715C386.467 226.368 387.708 228.372 390.023 229.727C392.337 231.081 395.978 231.759 400.946 231.759C406.421 231.759 410.401 231.081 412.885 229.727C415.368 228.372 416.667 226.368 416.779 223.715C416.892 220.723 416.921 217.11 416.864 212.877C416.808 208.587 416.723 204.946 416.61 201.954H436.508C436.678 204.72 436.762 207.712 436.762 210.929C436.819 214.147 436.762 217.167 436.593 219.989C436.198 230.15 433.234 237.432 427.702 241.835C422.227 246.181 413.308 248.355 400.946 248.355ZM471.18 247H451.367V126.087H471.18V247ZM503.058 247H482.652L503.143 126.087H537.52L558.011 247H537.689L533.371 219.905H507.461L503.058 247ZM512.965 175.282L509.239 201.954H531.508L527.867 175.282L523.464 144.038H517.368L512.965 175.282ZM658.768 247H638.955V126.087H658.768V247ZM710.205 248.355C697.73 248.355 688.755 246.181 683.279 241.835C677.804 237.432 674.925 230.15 674.643 219.989C674.247 209.264 674.05 198.115 674.05 186.543C674.05 174.915 674.247 163.738 674.643 153.013C674.925 142.909 677.804 135.655 683.279 131.252C688.755 126.849 697.73 124.648 710.205 124.648C722.737 124.648 731.712 126.849 737.131 131.252C742.607 135.655 745.486 142.909 745.768 153.013C746.163 163.851 746.361 175.056 746.361 186.628C746.361 198.144 746.163 209.264 745.768 219.989C745.486 230.15 742.607 237.432 737.131 241.835C731.712 246.181 722.737 248.355 710.205 248.355ZM710.205 231.759C715.737 231.759 719.717 231.081 722.144 229.727C724.571 228.372 725.841 226.396 725.954 223.8C726.406 216.348 726.688 208.276 726.801 199.583C726.914 190.834 726.886 182.084 726.716 173.335C726.604 164.585 726.35 156.541 725.954 149.203C725.841 146.55 724.543 144.574 722.059 143.276C719.576 141.921 715.624 141.243 710.205 141.243C704.843 141.243 700.919 141.921 698.436 143.276C695.952 144.574 694.625 146.55 694.456 149.203C694.004 156.541 693.722 164.585 693.609 173.335C693.496 182.084 693.525 190.834 693.694 199.583C693.863 208.276 694.117 216.348 694.456 223.8C694.625 226.396 695.952 228.372 698.436 229.727C700.919 231.081 704.843 231.759 710.205 231.759ZM778.577 247H759.356V126.087H789.923L799.745 164.613L811.599 229.049H816.256L812.616 176.298L811.176 126.087H830.397V247H798.56L788.145 206.696L778.492 143.953H773.666L776.968 200.769L778.577 247Z" fill="white"/>
<path d="M605.111 348H585.298V227.087H605.111V348Z" fill="#8468F3"/>
<path d="M605.111 466.522H585.298V345.609H605.111V466.522Z" fill="#8468F3"/>
<path d="M79.051 359.142C68.7238 359.142 61.3473 357.31 56.9214 353.645C52.5431 349.933 50.2349 343.794 49.997 335.228C49.8066 329.898 49.6639 323.854 49.5687 317.096C49.5211 310.338 49.5211 303.58 49.5687 296.822C49.6639 290.065 49.8066 283.997 49.997 278.619C50.1874 271.243 52.5431 265.437 57.0642 261.201C61.5853 256.965 68.8904 254.848 78.9796 254.848C89.1164 254.848 96.4691 256.704 101.038 260.416C105.654 264.128 108.105 270.243 108.39 278.762C108.486 280.903 108.509 283.402 108.462 286.257C108.414 289.065 108.343 291.564 108.248 293.753H91.5435C91.6386 291.231 91.6862 288.209 91.6862 284.687C91.7338 281.118 91.71 278.096 91.6149 275.621C91.5673 273.384 90.5441 271.719 88.5453 270.624C86.5465 269.482 83.3579 268.911 78.9796 268.911C74.7916 268.911 71.722 269.482 69.7708 270.624C67.8672 271.719 66.844 273.384 66.7012 275.621C66.4633 281.998 66.2967 288.827 66.2015 296.109C66.1064 303.342 66.1064 310.6 66.2015 317.881C66.2967 325.163 66.4633 331.992 66.7012 338.369C66.844 340.606 67.891 342.295 69.8422 343.437C71.7934 344.579 74.863 345.151 79.051 345.151C83.6672 345.151 87.0224 344.579 89.1164 343.437C91.2103 342.295 92.3049 340.606 92.4001 338.369C92.4953 335.847 92.5191 332.801 92.4715 329.232C92.4239 325.615 92.3525 322.545 92.2573 320.023H109.033C109.176 322.355 109.247 324.877 109.247 327.59C109.295 330.302 109.247 332.848 109.104 335.228C108.771 343.794 106.273 349.933 101.609 353.645C96.9926 357.31 89.4733 359.142 79.051 359.142Z" fill="#8468F3"/>
<path d="M144.219 358.97C135.284 358.97 128.856 357.414 124.934 354.301C121.012 351.147 118.951 345.932 118.748 338.655C118.465 330.973 118.324 322.988 118.324 314.7C118.324 306.372 118.465 298.367 118.748 290.685C118.951 283.448 121.012 278.253 124.934 275.099C128.856 271.946 135.284 270.369 144.219 270.369C153.194 270.369 159.623 271.946 163.504 275.099C167.425 278.253 169.487 283.448 169.689 290.685C169.972 298.447 170.114 306.473 170.114 314.761C170.114 323.008 169.972 330.973 169.689 338.655C169.487 345.932 167.425 351.147 163.504 354.301C159.623 357.414 153.194 358.97 144.219 358.97ZM144.219 347.084C148.181 347.084 151.031 346.599 152.77 345.629C154.508 344.658 155.418 343.243 155.499 341.384C155.822 336.047 156.024 330.265 156.105 324.039C156.186 317.773 156.166 311.506 156.045 305.24C155.964 298.973 155.782 293.212 155.499 287.956C155.418 286.056 154.488 284.641 152.709 283.711C150.93 282.741 148.1 282.255 144.219 282.255C140.378 282.255 137.568 282.741 135.789 283.711C134.01 284.641 133.06 286.056 132.939 287.956C132.616 293.212 132.414 298.973 132.333 305.24C132.252 311.506 132.272 317.773 132.393 324.039C132.515 330.265 132.697 336.047 132.939 341.384C133.06 343.243 134.01 344.658 135.789 345.629C137.568 346.599 140.378 347.084 144.219 347.084ZM193.612 358H179.422V271.4H201.921L207.742 304.694L208.41 345.083H210.653L211.26 304.694L217.142 271.4H239.581V358H225.329V331.62L228.119 284.257H225.754L222.6 332.529L216.96 357.879H202.103L196.523 332.529L193.188 284.257H191.005L193.612 331.62V358ZM263.625 358H249.434V271.4H272.903C281.677 271.4 288.024 272.936 291.946 276.009C295.867 279.082 298.01 284.156 298.374 291.231C298.657 294.586 298.798 297.679 298.798 300.509C298.798 303.299 298.657 306.311 298.374 309.545C298.01 316.58 295.847 321.634 291.885 324.706C287.963 327.779 281.576 329.315 272.721 329.315H263.625V358ZM263.625 284.257V316.459H272.721C276.643 316.459 279.473 315.933 281.212 314.882C282.991 313.831 283.961 312.315 284.123 310.334C284.406 307.342 284.547 304.027 284.547 300.388C284.547 296.709 284.406 293.394 284.123 290.442C283.961 288.421 283.011 286.885 281.272 285.833C279.534 284.782 276.744 284.257 272.903 284.257H263.625ZM331.818 358.97C322.681 358.97 316.111 357.414 312.109 354.301C308.147 351.147 306.125 345.932 306.044 338.655C305.559 316.216 305.559 293.798 306.044 271.4H320.235C319.952 282.478 319.81 294.142 319.81 306.392C319.81 318.602 319.891 330.265 320.053 341.384C320.053 345.184 323.975 347.084 331.818 347.084C339.459 347.084 343.28 345.184 343.28 341.384C343.482 330.265 343.583 318.602 343.583 306.392C343.623 294.142 343.522 282.478 343.28 271.4H357.47C357.956 293.798 357.956 316.216 357.47 338.655C357.43 345.932 355.409 351.147 351.406 354.301C347.404 357.414 340.874 358.97 331.818 358.97ZM393.825 358H379.635V284.257H363.139V271.4H410.26V284.257H393.825V358ZM432.364 358H418.173V271.4H432.364V358ZM457.621 358H443.854V271.4H465.747L472.782 298.993L481.272 345.143H484.607L482 307.362L480.969 271.4H494.735V358H471.933L464.473 329.133L457.56 284.196H454.103L456.468 324.888L457.621 358ZM529.695 358.97C520.801 358.97 514.453 357.414 510.653 354.301C506.893 351.147 504.892 345.912 504.649 338.594C504.447 334.106 504.305 329.032 504.224 323.372C504.184 317.712 504.184 312.092 504.224 306.513C504.305 300.893 504.447 295.9 504.649 291.534C504.892 283.852 506.913 278.415 510.713 275.221C514.554 271.986 520.861 270.369 529.634 270.369C538.003 270.369 544.108 271.946 547.949 275.099C551.79 278.253 553.912 283.448 554.317 290.685C554.519 292.545 554.6 294.667 554.559 297.053C554.559 299.398 554.478 301.52 554.317 303.42H540.126C540.288 301.237 540.368 298.67 540.368 295.718C540.409 292.727 540.328 290.139 540.126 287.956C539.802 284.156 536.305 282.255 529.634 282.255C522.64 282.255 519.042 284.156 518.84 287.956C518.557 293.374 518.375 299.175 518.294 305.361C518.213 311.547 518.213 317.732 518.294 323.918C518.415 330.104 518.597 335.905 518.84 341.323C518.921 343.183 519.83 344.618 521.569 345.629C523.307 346.599 526.016 347.084 529.695 347.084C536.851 347.084 540.651 345.164 541.096 341.323C541.177 339.746 541.217 337.765 541.217 335.38C541.217 332.954 541.177 330.973 541.096 329.437H530.241V316.762H554.984C555.145 319.956 555.226 323.493 555.226 327.375C555.226 331.256 555.105 334.996 554.862 338.594C554.579 345.912 552.477 351.147 548.555 354.301C544.634 357.414 538.347 358.97 529.695 358.97Z" fill="white"/>
<path d="M676.696 358H634.306V271.4H676.696V284.257H648.496V307.605H675.059V320.461H648.496V345.143H676.696V358ZM709.291 358.97C700.518 358.97 694.251 357.414 690.491 354.301C686.772 351.147 684.811 345.932 684.609 338.655C684.447 334.126 684.326 328.992 684.245 323.251C684.205 317.51 684.205 311.769 684.245 306.028C684.326 300.287 684.447 295.132 684.609 290.564C684.771 284.297 686.772 279.365 690.613 275.767C694.453 272.168 700.659 270.369 709.23 270.369C717.842 270.369 724.088 271.946 727.969 275.099C731.891 278.253 733.973 283.448 734.216 290.685C734.297 292.504 734.317 294.627 734.276 297.053C734.236 299.438 734.175 301.561 734.094 303.42H719.904C719.985 301.277 720.025 298.71 720.025 295.718C720.065 292.686 720.045 290.119 719.964 288.017C719.924 286.116 719.055 284.701 717.357 283.772C715.659 282.801 712.95 282.316 709.23 282.316C705.673 282.316 703.065 282.801 701.407 283.772C699.79 284.701 698.921 286.116 698.8 288.017C698.597 293.434 698.456 299.236 698.375 305.422C698.294 311.567 698.294 317.732 698.375 323.918C698.456 330.104 698.597 335.905 698.8 341.323C698.921 343.223 699.81 344.658 701.468 345.629C703.126 346.599 705.733 347.084 709.291 347.084C713.213 347.084 716.063 346.599 717.842 345.629C719.621 344.658 720.551 343.223 720.631 341.323C720.712 339.18 720.733 336.593 720.692 333.56C720.652 330.488 720.591 327.88 720.51 325.737H734.762C734.883 327.718 734.944 329.861 734.944 332.166C734.984 334.47 734.944 336.633 734.822 338.655C734.539 345.932 732.417 351.147 728.455 354.301C724.533 357.414 718.145 358.97 709.291 358.97ZM757.957 358H743.766V271.4H757.957V307.605H779.971V271.4H794.161V358H779.971V320.461H757.957V358ZM817.842 358H804.075V271.4H825.968L833.003 298.993L841.493 345.143H844.828L842.221 307.362L841.19 271.4H854.956V358H832.154L824.694 329.133L817.781 284.196H814.324L816.689 324.888L817.842 358ZM890.219 358.97C881.284 358.97 874.856 357.414 870.934 354.301C867.013 351.147 864.951 345.932 864.749 338.655C864.466 330.973 864.324 322.988 864.324 314.7C864.324 306.372 864.466 298.367 864.749 290.685C864.951 283.448 867.013 278.253 870.934 275.099C874.856 271.946 881.284 270.369 890.219 270.369C899.195 270.369 905.623 271.946 909.504 275.099C913.426 278.253 915.488 283.448 915.69 290.685C915.973 298.447 916.114 306.473 916.114 314.761C916.114 323.008 915.973 330.973 915.69 338.655C915.488 345.932 913.426 351.147 909.504 354.301C905.623 357.414 899.195 358.97 890.219 358.97ZM890.219 347.084C894.181 347.084 897.032 346.599 898.77 345.629C900.509 344.658 901.418 343.243 901.499 341.384C901.822 336.047 902.025 330.265 902.105 324.039C902.186 317.773 902.166 311.506 902.045 305.24C901.964 298.973 901.782 293.212 901.499 287.956C901.418 286.056 900.488 284.641 898.709 283.711C896.931 282.741 894.1 282.255 890.219 282.255C886.378 282.255 883.569 282.741 881.79 283.711C880.011 284.641 879.061 286.056 878.939 287.956C878.616 293.212 878.414 298.973 878.333 305.24C878.252 311.506 878.272 317.773 878.394 324.039C878.515 330.265 878.697 336.047 878.939 341.384C879.061 343.243 880.011 344.658 881.79 345.629C883.569 346.599 886.378 347.084 890.219 347.084ZM965.265 358H925.422V271.4H939.613V345.143H965.265V358ZM997.739 358.97C988.804 358.97 982.376 357.414 978.454 354.301C974.532 351.147 972.47 345.932 972.268 338.655C971.985 330.973 971.844 322.988 971.844 314.7C971.844 306.372 971.985 298.367 972.268 290.685C972.47 283.448 974.532 278.253 978.454 275.099C982.376 271.946 988.804 270.369 997.739 270.369C1006.71 270.369 1013.14 271.946 1017.02 275.099C1020.95 278.253 1023.01 283.448 1023.21 290.685C1023.49 298.447 1023.63 306.473 1023.63 314.761C1023.63 323.008 1023.49 330.973 1023.21 338.655C1023.01 345.932 1020.95 351.147 1017.02 354.301C1013.14 357.414 1006.71 358.97 997.739 358.97ZM997.739 347.084C1001.7 347.084 1004.55 346.599 1006.29 345.629C1008.03 344.658 1008.94 343.243 1009.02 341.384C1009.34 336.047 1009.54 330.265 1009.63 324.039C1009.71 317.773 1009.69 311.506 1009.56 305.24C1009.48 298.973 1009.3 293.212 1009.02 287.956C1008.94 286.056 1008.01 284.641 1006.23 283.711C1004.45 282.741 1001.62 282.255 997.739 282.255C993.898 282.255 991.088 282.741 989.309 283.711C987.53 284.641 986.58 286.056 986.459 287.956C986.136 293.212 985.933 298.973 985.853 305.24C985.772 311.506 985.792 317.773 985.913 324.039C986.035 330.265 986.216 336.047 986.459 341.384C986.58 343.243 987.53 344.658 989.309 345.629C991.088 346.599 993.898 347.084 997.739 347.084ZM1057.99 358.97C1049.09 358.97 1042.75 357.414 1038.95 354.301C1035.19 351.147 1033.18 345.912 1032.94 338.594C1032.74 334.106 1032.6 329.032 1032.52 323.372C1032.48 317.712 1032.48 312.092 1032.52 306.513C1032.6 300.893 1032.74 295.9 1032.94 291.534C1033.18 283.852 1035.21 278.415 1039.01 275.221C1042.85 271.986 1049.15 270.369 1057.93 270.369C1066.3 270.369 1072.4 271.946 1076.24 275.099C1080.08 278.253 1082.2 283.448 1082.61 290.685C1082.81 292.545 1082.89 294.667 1082.85 297.053C1082.85 299.398 1082.77 301.52 1082.61 303.42H1068.42C1068.58 301.237 1068.66 298.67 1068.66 295.718C1068.7 292.727 1068.62 290.139 1068.42 287.956C1068.09 284.156 1064.6 282.255 1057.93 282.255C1050.93 282.255 1047.33 284.156 1047.13 287.956C1046.85 293.374 1046.67 299.175 1046.59 305.361C1046.51 311.547 1046.51 317.732 1046.59 323.918C1046.71 330.104 1046.89 335.905 1047.13 341.323C1047.21 343.183 1048.12 344.618 1049.86 345.629C1051.6 346.599 1054.31 347.084 1057.99 347.084C1065.14 347.084 1068.94 345.164 1069.39 341.323C1069.47 339.746 1069.51 337.765 1069.51 335.38C1069.51 332.954 1069.47 330.973 1069.39 329.437H1058.53V316.762H1083.28C1083.44 319.956 1083.52 323.493 1083.52 327.375C1083.52 331.256 1083.4 334.996 1083.15 338.594C1082.87 345.912 1080.77 351.147 1076.85 354.301C1072.93 357.414 1066.64 358.97 1057.99 358.97ZM1122.85 358H1108.53V336.896L1089.01 271.4H1103.62L1110.17 293.05L1114.11 320.764H1117.45L1121.27 293.05L1127.82 271.4H1142.43L1122.85 336.896V358Z" fill="white"/>
<path d="M494.503 467.97C485.608 467.97 479.241 466.414 475.4 463.301C471.559 460.147 469.477 454.912 469.153 447.594C468.83 443.389 468.931 439.083 469.457 434.677H483.041C482.798 437.466 482.657 440.195 482.616 442.864C482.616 445.532 482.758 448.018 483.041 450.323C483.243 452.183 484.213 453.618 485.952 454.629C487.731 455.599 490.561 456.084 494.442 456.084C498.283 456.084 501.032 455.599 502.69 454.629C504.388 453.618 505.358 452.183 505.601 450.323C505.884 448.221 506.005 446.239 505.964 444.38C505.924 442.48 505.803 440.478 505.601 438.376C505.398 436.637 504.752 435.101 503.66 433.767C502.568 432.433 500.405 431.543 497.171 431.099L487.104 428.976C482.333 428.046 478.654 426.712 476.067 424.974C473.52 423.235 471.721 421.052 470.67 418.424C469.618 415.796 469.012 412.703 468.85 409.145C468.769 407.447 468.729 405.83 468.729 404.294C468.769 402.758 468.83 401.221 468.911 399.685C469.153 392.448 471.195 387.253 475.036 384.099C478.877 380.946 485.345 379.369 494.442 379.369C503.013 379.369 509.219 380.946 513.06 384.099C516.901 387.253 518.963 392.448 519.246 399.685C519.367 401.302 519.387 403.303 519.306 405.689C519.266 408.034 519.185 410.277 519.064 412.42H505.358C505.722 407.124 505.762 401.969 505.479 396.956C505.156 393.156 501.457 391.255 494.381 391.255C490.541 391.255 487.771 391.741 486.073 392.711C484.375 393.681 483.405 395.096 483.162 396.956C482.879 398.977 482.738 401.019 482.738 403.081C482.778 405.103 482.92 407.124 483.162 409.145C483.364 410.924 484.011 412.461 485.103 413.754C486.195 415.008 488.459 415.857 491.895 416.301L501.174 418.06C506.106 418.95 509.886 420.304 512.514 422.123C515.142 423.943 516.982 426.207 518.033 428.915C519.124 431.584 519.751 434.737 519.913 438.376C520.034 439.993 520.074 441.55 520.034 443.046C519.994 444.541 519.913 446.058 519.791 447.594C519.468 454.912 517.366 460.147 513.484 463.301C509.644 466.414 503.316 467.97 494.503 467.97Z" fill="#8468F3"/>
<path d="M552.932 467.97C544.159 467.97 537.892 466.414 534.132 463.301C530.413 460.147 528.452 454.932 528.25 447.655C528.088 443.126 527.967 437.992 527.886 432.251C527.846 426.51 527.846 420.769 527.886 415.028C527.967 409.287 528.088 404.132 528.25 399.564C528.412 393.297 530.413 388.365 534.254 384.767C538.095 381.168 544.301 379.369 552.872 379.369C561.483 379.369 567.729 380.946 571.611 384.099C575.532 387.253 577.614 392.448 577.857 399.685C577.938 401.504 577.958 403.627 577.918 406.053C577.877 408.438 577.817 410.561 577.736 412.42H563.545C563.626 410.277 563.666 407.71 563.666 404.718C563.707 401.686 563.686 399.119 563.606 397.017C563.565 395.116 562.696 393.701 560.998 392.772C559.3 391.801 556.591 391.316 552.872 391.316C549.314 391.316 546.706 391.801 545.048 392.772C543.431 393.701 542.562 395.116 542.441 397.017C542.239 402.434 542.097 408.236 542.016 414.422C541.935 420.567 541.935 426.732 542.016 432.918C542.097 439.104 542.239 444.905 542.441 450.323C542.562 452.223 543.451 453.658 545.109 454.629C546.767 455.599 549.374 456.084 552.932 456.084C556.854 456.084 559.704 455.599 561.483 454.629C563.262 453.658 564.192 452.223 564.273 450.323C564.354 448.18 564.374 445.593 564.333 442.56C564.293 439.488 564.232 436.88 564.151 434.737H578.403C578.524 436.718 578.585 438.861 578.585 441.166C578.625 443.47 578.585 445.633 578.463 447.655C578.18 454.932 576.058 460.147 572.096 463.301C568.174 466.414 561.786 467.97 552.932 467.97ZM656.631 467H614.241V380.4H656.631V393.257H628.432V416.605H654.994V429.461H628.432V454.143H656.631V467ZM678.371 467H664.605V380.4H686.497L693.532 407.993L702.022 454.143H705.358L702.75 416.362L701.719 380.4H715.485V467H692.683L685.224 438.133L678.31 393.196H674.854L677.219 433.888L678.371 467ZM750.021 467.97C741.248 467.97 734.981 466.414 731.221 463.301C727.502 460.147 725.541 454.932 725.339 447.655C725.177 443.126 725.056 437.992 724.975 432.251C724.934 426.51 724.934 420.769 724.975 415.028C725.056 409.287 725.177 404.132 725.339 399.564C725.5 393.297 727.502 388.365 731.342 384.767C735.183 381.168 741.389 379.369 749.96 379.369C758.572 379.369 764.818 380.946 768.699 384.099C772.621 387.253 774.703 392.448 774.946 399.685C775.026 401.504 775.047 403.627 775.006 406.053C774.966 408.438 774.905 410.561 774.824 412.42H760.634C760.714 410.277 760.755 407.71 760.755 404.718C760.795 401.686 760.775 399.119 760.694 397.017C760.654 395.116 759.785 393.701 758.087 392.772C756.388 391.801 753.68 391.316 749.96 391.316C746.402 391.316 743.795 391.801 742.137 392.772C740.52 393.701 739.651 395.116 739.529 397.017C739.327 402.434 739.186 408.236 739.105 414.422C739.024 420.567 739.024 426.732 739.105 432.918C739.186 439.104 739.327 444.905 739.529 450.323C739.651 452.223 740.54 453.658 742.198 454.629C743.855 455.599 746.463 456.084 750.021 456.084C753.943 456.084 756.793 455.599 758.572 454.629C760.351 453.658 761.28 452.223 761.361 450.323C761.442 448.18 761.462 445.593 761.422 442.56C761.382 439.488 761.321 436.88 761.24 434.737H775.491C775.613 436.718 775.673 438.861 775.673 441.166C775.714 443.47 775.673 445.633 775.552 447.655C775.269 454.932 773.146 460.147 769.184 463.301C765.263 466.414 758.875 467.97 750.021 467.97ZM826.886 467H784.496V380.4H826.886V393.257H798.687V416.605H825.249V429.461H798.687V454.143H826.886V467Z" fill="white"/>
<path d="M303.133 467.728C298.2 467.728 294.562 466.677 292.217 464.574C289.872 462.431 288.477 458.773 288.032 453.598C287.992 453.032 287.951 452.324 287.911 451.475C287.911 450.626 287.951 449.898 288.032 449.292C288.356 445.249 289.67 442.075 291.974 439.771C294.319 437.466 298.402 435.364 304.224 433.464C306.327 432.817 308.429 432.271 310.531 431.826C312.634 431.382 314.796 430.937 317.02 430.492V422.851C317.02 421.274 316.515 420.061 315.504 419.212C314.493 418.323 312.613 417.878 309.864 417.878C307.479 417.878 305.74 418.242 304.649 418.97C303.598 419.657 303.011 420.789 302.89 422.366C302.85 422.811 302.809 423.599 302.769 424.731C302.769 425.823 302.769 426.934 302.769 428.066C302.809 429.158 302.85 430.007 302.89 430.614H289.912C289.872 430.29 289.811 429.38 289.73 427.885C289.69 426.389 289.71 425.115 289.791 424.064C290.033 418.121 291.671 413.795 294.703 411.086C297.735 408.377 302.91 407.023 310.228 407.023C317.829 407.023 323.064 408.539 325.935 411.571C328.805 414.563 330.22 419.495 330.18 426.368L330.119 467H316.899V460.632H314.958C313.705 463.099 312.209 464.898 310.471 466.03C308.732 467.162 306.286 467.728 303.133 467.728ZM308.227 457.236C310.289 457.236 312.047 456.872 313.503 456.145C314.958 455.417 316.11 454.487 316.959 453.355V439.892C315.383 440.135 313.806 440.418 312.229 440.741C310.693 441.065 309.096 441.428 307.438 441.833C305.013 442.641 303.375 443.692 302.526 444.986C301.718 446.28 301.253 447.715 301.131 449.292C301.01 450.545 301.03 451.596 301.192 452.445C301.637 455.639 303.982 457.236 308.227 457.236ZM353.496 467H340.155V407.993H353.496V414.3H355.983C357.398 411.915 358.995 410.116 360.774 408.903C362.553 407.65 365.079 407.023 368.354 407.023C372.842 407.023 376.299 408.296 378.724 410.844C381.15 413.35 382.363 417.595 382.363 423.579V467H369.082V422.305C369.082 419.192 367.04 417.636 362.957 417.636C361.057 417.636 359.197 418.02 357.378 418.788C355.558 419.556 354.265 420.587 353.496 421.881V467ZM405.922 467.91C401.394 467.91 397.937 466.636 395.552 464.089C393.167 461.542 391.853 457.297 391.61 451.354C391.489 449.777 391.408 447.756 391.367 445.289C391.327 442.823 391.307 440.215 391.307 437.466C391.307 434.717 391.327 432.109 391.367 429.643C391.408 427.177 391.489 425.156 391.61 423.579C391.853 417.595 393.187 413.35 395.613 410.844C398.079 408.296 401.596 407.023 406.165 407.023C409.561 407.023 412.128 407.65 413.866 408.903C415.645 410.116 417.262 411.915 418.718 414.3H420.84V388.284H434.122V467H420.84V460.632H418.718C417.222 462.977 415.564 464.776 413.745 466.03C411.926 467.283 409.318 467.91 405.922 467.91ZM411.077 457.236C413.179 457.236 415.12 456.852 416.899 456.084C418.718 455.316 420.032 454.305 420.84 453.052V421.881C420.032 420.587 418.718 419.556 416.899 418.788C415.12 418.02 413.199 417.636 411.137 417.636C407.135 417.636 405.053 419.192 404.891 422.305C404.729 425.176 404.608 428.491 404.527 432.251C404.487 435.97 404.487 439.649 404.527 443.288C404.608 446.927 404.729 450.04 404.891 452.627C405.012 454.204 405.538 455.377 406.468 456.145C407.438 456.872 408.974 457.236 411.077 457.236Z" fill="white"/>
<path d="M881.289 247.91C873.647 247.91 868.25 246.414 865.097 243.422C861.943 240.39 860.205 235.336 859.881 228.261C859.76 226.765 859.659 224.622 859.578 221.833C859.538 219.003 859.538 216.173 859.578 213.342C859.618 210.472 859.72 208.208 859.881 206.55C860.245 199.556 861.984 194.563 865.097 191.571C868.21 188.539 873.607 187.023 881.289 187.023C889.011 187.023 894.408 188.539 897.481 191.571C900.553 194.603 902.251 199.596 902.575 206.55C902.736 208.087 902.838 210.25 902.878 213.039C902.918 215.829 902.918 218.659 902.878 221.529C902.838 224.36 902.736 226.603 902.575 228.261C902.211 235.255 900.493 240.289 897.42 243.361C894.388 246.394 889.011 247.91 881.289 247.91ZM881.289 237.054C884.119 237.054 886.14 236.61 887.353 235.72C888.566 234.831 889.213 233.577 889.294 231.96C889.496 227.392 889.597 222.54 889.597 217.406C889.597 212.271 889.496 207.42 889.294 202.851C889.213 201.234 888.566 200.001 887.353 199.152C886.181 198.303 884.159 197.878 881.289 197.878C878.459 197.878 876.417 198.303 875.164 199.152C873.91 200.001 873.243 201.234 873.162 202.851C872.92 207.42 872.778 212.291 872.738 217.466C872.738 222.601 872.879 227.432 873.162 231.96C873.243 233.577 873.91 234.831 875.164 235.72C876.457 236.61 878.499 237.054 881.289 237.054ZM927.589 247H914.248V198.97H907.698V187.993H914.248V184.658C914.248 178.391 915.804 173.924 918.917 171.255C922.03 168.587 926.861 167.253 933.411 167.253C935.958 167.253 938.445 167.475 940.87 167.92V178.533H933.532C929.57 178.533 927.589 180.19 927.589 183.506V187.993H938.445V198.97H927.589V247Z" fill="white"/>
</svg>
